<svg width="25" height="25" viewBox="0 0 25 25" fill="none" xmlns="http://www.w3.org/2000/svg">
<g clip-path="url(#clip0_2162_639)">
<rect x="0.333344" y="0.335449" width="24" height="24" rx="5" fill="#FA812F"/>
<path d="M24.3333 12.1632C24.3333 15.3425 23.8005 17.9214 23.143 17.9214C22.4855 17.9214 21.9529 15.3432 21.9529 12.1632C21.9529 8.98315 22.4858 6.40491 23.143 6.40491C23.8003 6.40491 24.3333 8.98292 24.3333 12.1632Z" fill="white"/>
<path d="M21.2962 12.1631C21.2962 15.7124 19.7809 18.5909 17.9117 18.5909C16.0426 18.5909 14.5273 15.7124 14.5273 12.1631C14.5273 8.61379 16.0423 5.73535 17.9115 5.73535C19.7807 5.73535 21.2959 8.61286 21.2959 12.1631" fill="white"/>
<path d="M13.8708 12.1631C13.8708 15.9339 10.8403 18.9906 7.10218 18.9906C3.36407 18.9906 0.333344 15.9332 0.333344 12.1631C0.333344 8.39312 3.36384 5.33545 7.10218 5.33545C10.8405 5.33545 13.8708 8.39243 13.8708 12.1631Z" fill="white"/>
</g>
<defs>
<clipPath id="clip0_2162_639">
<rect x="0.333344" y="0.335449" width="24" height="24" rx="5" fill="white"/>
</clipPath>
</defs>
</svg>
